<?xml version="1.0" encoding="utf-8"?>
<svg viewBox="0 0 500 500" xmlns="http://www.w3.org/2000/svg">
  <defs/>
  <ellipse style="stroke: rgb(0, 0, 0); fill: rgb(5, 11, 13); stroke-width: 0px;" cx="250" cy="250" rx="250" ry="250"/>
  <path d="M 159.195 357.208 C 148.04 357.208 138.611 353.357 130.909 345.656 C 123.208 337.954 119.359 328.526 119.359 317.372 L 119.359 182.628 C 119.359 171.473 123.209 162.046 130.909 154.343 C 138.611 146.642 148.04 142.791 159.195 142.791 L 219.243 142.791 L 250 173.548 L 340.805 173.548 C 351.96 173.548 361.388 177.399 369.089 185.1 C 376.791 192.802 380.641 202.23 380.641 213.385 L 380.641 317.372 C 380.641 328.526 376.791 337.954 369.089 345.656 C 361.388 353.357 351.96 357.208 340.805 357.208 L 159.195 357.208 Z" fill="#a3d0f7" style=""/>
</svg>